<?xml version="1.0" ?><svg height="50px" version="1.1" viewBox="0 0 50 50" width="50px" xmlns="http://www.w3.org/2000/svg" xmlns:xlink="http://www.w3.org/1999/xlink"><title/><desc/><g fill="none" fill-rule="evenodd" id="fortnite_squircle" stroke="none" stroke-width="1"><g id="fortnite"><path d="M6,0 L44,0 C47.3137085,0 50,2.6862915 50,6 L50,44 C50,47.3137085 47.3137085,50 44,50 L6,50 C2.6862915,50 0,47.3137085 0,44 L0,6 C0,2.6862915 2.6862915,0 6,0 Z" fill="#5230DC" id="Background"/><path d="M26.4454283,21.0957806 L26.4454283,16.0546603 L31.6840851,16.0546603 L32.2623028,8.98021642 L20.6920336,8.9833707 L19.2789191,8.9833707 L19.2789191,41.0623314 L26.4454283,39.7164423 L26.4454283,27.9594796 L30.8326284,27.9594796 L30.9363251,21.0957806 L26.4454283,21.0957806 Z M8.3777502,10.6961412 L17.7305652,10.6961412 L17.8606789,7.44783097 L33.8711794,7.44783097 L33.8425938,10.6963383 L43.503739,10.6961412 L42.696245,18.7206127 L43.503739,37.6462533 L27.9957537,36.8387593 L27.9519882,41.0974227 L17.8180963,42.9665268 L17.7690079,37.941375 L8.35941599,39.2111672 L9.11880731,19.7887286 L8.3777502,10.6961412 Z" fill="#FFFFFF" id="Shape"/></g></g></svg>